<?xml version="1.0" encoding="UTF-8"?>
<svg width="864px" height="260px" viewBox="0 0 864 260" version="1.1" xmlns="http://www.w3.org/2000/svg" xmlns:xlink="http://www.w3.org/1999/xlink">
    <title>Logo</title>
    <g id="Logo" stroke="none" stroke-width="1" fill="none" fill-rule="evenodd">
        <path d="M731.349,103.756 C727.06,103.784 723.585,107.324 723.585,111.68 C723.585,115.94 726.908,119.42 731.067,119.597 L750.84,119.6 L750.84,119.597 C765.079,119.597 776.64,131.319 776.64,145.757 C776.64,160.155 765.144,171.851 750.96,171.917 L711.284,171.92 C710.026,171.92 709.396,171.094 708.96,170.076 L703.2,156.004 C702.661,154.746 703.546,153.68 704.564,153.68 L750.96,153.68 C755.236,153.615 758.689,150.109 758.689,145.757 C758.689,141.405 755.236,137.905 750.96,137.84 L731.4,137.84 C717.161,137.84 705.6,126.118 705.6,111.68 C705.6,97.242 717.161,85.52 731.4,85.52 L772.396,85.52 C773.654,85.52 774.676,86.346 774.24,87.364 L768,101.916 C767.579,102.897 766.694,103.76 765.676,103.76 L731.4,103.756 L731.349,103.756" id="Fill-1" fill="#FFFFFF"></path>
        <path d="M455.489,119.6 L433.688,169.041 C432.968,170.626 432.594,171.912 431.009,171.912 L416.609,171.918 C414.544,171.918 413.406,171.351 414.409,169.047 L449.62,88.095 C450.34,86.75 450.787,85.76 452.372,85.76 L458.607,85.76 C460.191,85.76 460.638,86.75 461.358,88.095 L496.57,169.047 C497.572,171.351 496.434,171.918 494.369,171.918 L479.969,171.912 C478.384,171.912 478.01,170.626 477.29,169.041 L455.489,119.6" id="Fill-2" fill="#FFFFFF"></path>
        <path d="M563.204,171.92 C562.186,171.92 561.36,171.094 561.36,170.076 L561.36,87.364 C561.36,86.346 562.186,85.52 563.204,85.52 L577.756,85.52 C578.774,85.52 579.6,86.346 579.6,87.364 L579.6,153.68 L616.636,153.68 C617.654,153.68 618.56,154.746 618,156.004 L612,170.076 C611.44,171.334 610.694,171.92 609.436,171.92 L563.204,171.92" id="Fill-3" fill="#FFFFFF"></path>
        <path d="M511.44,103.76 L488.324,103.76 C487.306,103.76 486.48,102.934 486.48,101.916 L486.48,87.364 C486.48,86.346 487.306,85.52 488.324,85.52 L552.796,85.52 C553.814,85.52 554.64,86.346 554.64,87.364 L554.64,101.916 C554.64,102.934 553.814,103.76 552.796,103.76 L529.68,103.76 L529.68,170.076 C529.68,171.094 528.854,171.92 527.836,171.92 L513.284,171.92 C512.266,171.92 511.44,171.094 511.44,170.076 L511.44,103.76" id="Fill-4" fill="#FFFFFF"></path>
        <path d="M660.378,119.6 L638.577,169.041 C637.857,170.626 637.483,171.912 635.898,171.912 L621.498,171.918 C619.434,171.918 618.295,171.351 619.298,169.047 L654.509,88.095 C655.229,86.75 655.676,85.76 657.261,85.76 L663.496,85.76 C665.081,85.76 665.528,86.75 666.248,88.095 L701.459,169.047 C702.462,171.351 701.323,171.918 699.258,171.918 L684.858,171.912 C683.274,171.912 682.9,170.626 682.18,169.041 L660.378,119.6" id="Fill-5" fill="#FFFFFF"></path>
        <path d="M311.684,85.52 L350.4,85.52 C365.368,85.52 377.52,98.048 377.52,113.48 C377.52,125.083 370.65,135.045 360.879,139.273 L380.858,169.047 C381.338,171.351 380.002,171.918 377.938,171.918 L362.818,171.912 C361.233,171.912 360.619,170.386 359.659,169.041 L340.559,141.44 L328.08,141.44 L328.08,170.076 C328.08,171.094 327.254,171.92 326.236,171.92 L311.684,171.92 C310.666,171.92 309.84,171.094 309.84,170.076 L309.84,87.364 C309.84,86.346 310.666,85.52 311.684,85.52 Z M350.4,103.76 L328.08,103.76 L328.08,123.2 L350.4,123.2 L350.4,123.157 C355.581,123.157 359.787,118.821 359.787,113.48 C359.787,108.139 355.581,103.803 350.4,103.803 L350.4,103.76 L350.4,103.76 Z" id="Fill-6" fill="#FFFFFF"></path>
        <path d="M262.826,119.6 L241.025,169.041 C240.305,170.626 239.931,171.912 238.346,171.912 L223.946,171.918 C221.881,171.918 220.743,171.351 221.746,169.047 L256.957,88.095 C257.677,86.75 258.124,85.76 259.709,85.76 L265.943,85.76 C267.528,85.76 267.975,86.75 268.695,88.095 L303.907,169.047 C304.909,171.351 303.771,171.918 301.706,171.918 L287.306,171.912 C285.721,171.912 285.347,170.626 284.627,169.041 L262.826,119.6" id="Fill-7" fill="#FFFFFF"></path>
        <path d="M186.72,103.76 L160.724,103.76 C159.466,103.76 158.662,102.934 159.283,101.436 L165.36,87.364 C165.66,86.637 166.426,85.52 167.444,85.52 L228.076,85.52 C229.094,85.52 229.92,86.346 229.92,87.364 L229.92,101.916 C229.92,102.934 229.094,103.76 228.076,103.76 L204.96,103.76 L204.96,170.076 C204.96,171.094 204.134,171.92 203.116,171.92 L188.564,171.92 C187.546,171.92 186.72,171.094 186.72,170.076 L186.72,103.76" id="Fill-8" fill="#FFFFFF"></path>
        <path d="M114.789,103.756 C110.5,103.784 107.025,107.324 107.025,111.68 C107.025,115.94 110.348,119.42 114.507,119.597 L134.28,119.6 L134.28,119.597 C148.519,119.597 160.08,131.319 160.08,145.757 C160.08,160.155 148.584,171.851 134.4,171.917 L89.204,171.92 C87.946,171.92 87.027,170.854 87.36,170.076 L93.36,155.524 C93.591,154.72 94.426,153.68 95.444,153.68 L134.4,153.68 C138.676,153.615 142.129,150.109 142.129,145.757 C142.129,141.405 138.676,137.905 134.4,137.84 L114.84,137.84 C100.601,137.84 89.04,126.118 89.04,111.68 C89.04,97.242 100.601,85.52 114.84,85.52 L156.796,85.52 C157.814,85.52 158.778,86.227 158.4,87.364 L152.16,101.916 C151.624,103.215 150.854,103.76 149.836,103.76 L114.84,103.756 L114.789,103.756" id="Fill-9" fill="#FFFFFF"></path>
        <polyline id="Fill-10" fill="#32FEFF" points="455.52 194.72 441.12 165.92 469.44 165.92 455.52 194.72"></polyline>
    </g>
</svg>