<?xml version="1.0" encoding="UTF-8"?>
<svg xmlns="http://www.w3.org/2000/svg" style="display: none;">
  <!-- New File Icon - Cybertruck style -->
  <symbol id="icon-new" viewBox="0 0 24 24">
    <polygon points="2,2 14,2 22,10 22,22 2,22" stroke="currentColor" stroke-width="2.5" fill="none" stroke-linejoin="miter" stroke-linecap="square"/>
    <polyline points="14,2 14,10 22,10" stroke="currentColor" stroke-width="2.5" fill="none" stroke-linejoin="miter" stroke-linecap="square"/>
  </symbol>
  
  <!-- Load Icon - Cybertruck style -->
  <symbol id="icon-load" viewBox="0 0 24 24">
    <polygon points="2,2 22,2 22,22 2,22" stroke="currentColor" stroke-width="2.5" fill="none" stroke-linejoin="miter" stroke-linecap="square"/>
    <polyline points="7,11 12,16 17,11" stroke="currentColor" stroke-width="2.5" fill="none" stroke-linejoin="miter" stroke-linecap="square"/>
    <line x1="12" y1="16" x2="12" y2="5" stroke="currentColor" stroke-width="2.5" stroke-linecap="square"/>
  </symbol>
  
  <!-- Save Icon - Cybertruck style -->
  <symbol id="icon-save" viewBox="0 0 24 24">
    <polygon points="2,2 22,2 22,22 2,22" stroke="currentColor" stroke-width="2.5" fill="none" stroke-linejoin="miter" stroke-linecap="square"/>
    <polygon points="6,2 18,2 18,10 6,10" stroke="currentColor" stroke-width="2.5" fill="none" stroke-linejoin="miter" stroke-linecap="square"/>
    <rect x="5" y="13" width="14" height="9" stroke="currentColor" stroke-width="2.5" fill="none" stroke-linejoin="miter" stroke-linecap="square"/>
  </symbol>
  
  <!-- Search Icon - Cybertruck style -->
  <symbol id="icon-search" viewBox="0 0 24 24">
    <rect x="3" y="3" width="12" height="12" stroke="currentColor" stroke-width="2.5" fill="none" stroke-linejoin="miter" stroke-linecap="square"/>
    <line x1="15" y1="15" x2="21" y2="21" stroke="currentColor" stroke-width="2.5" stroke-linecap="square"/>
  </symbol>
  
  <!-- Clear Icon - Cybertruck style -->
  <symbol id="icon-clear" viewBox="0 0 24 24">
    <line x1="4" y1="4" x2="20" y2="20" stroke="currentColor" stroke-width="2.5" stroke-linecap="square"/>
    <line x1="4" y1="20" x2="20" y2="4" stroke="currentColor" stroke-width="2.5" stroke-linecap="square"/>
  </symbol>
  
  <!-- Add Icon - Cybertruck style -->
  <symbol id="icon-add" viewBox="0 0 24 24">
    <rect x="3" y="3" width="18" height="18" stroke="currentColor" stroke-width="2.5" fill="none" stroke-linejoin="miter" stroke-linecap="square"/>
    <line x1="7" y1="12" x2="17" y2="12" stroke="currentColor" stroke-width="2.5" stroke-linecap="square"/>
    <line x1="12" y1="7" x2="12" y2="17" stroke="currentColor" stroke-width="2.5" stroke-linecap="square"/>
  </symbol>
  
  <!-- Delete Icon - Cybertruck style -->
  <symbol id="icon-delete" viewBox="0 0 24 24">
    <polygon points="4,7 20,7 18,22 6,22" stroke="currentColor" stroke-width="2.5" fill="none" stroke-linejoin="miter" stroke-linecap="square"/>
    <line x1="2" y1="7" x2="22" y2="7" stroke="currentColor" stroke-width="2.5" stroke-linecap="square"/>
    <polyline points="8,7 8,2 16,2 16,7" stroke="currentColor" stroke-width="2.5" fill="none" stroke-linejoin="miter" stroke-linecap="square"/>
  </symbol>
  
  <!-- Edit Icon - Cybertruck style -->
  <symbol id="icon-edit" viewBox="0 0 24 24">
    <polygon points="18,2 22,6 6,22 2,22 2,18" stroke="currentColor" stroke-width="2.5" fill="none" stroke-linejoin="miter" stroke-linecap="square"/>
    <line x1="14" y1="6" x2="18" y2="10" stroke="currentColor" stroke-width="2.5" stroke-linecap="square"/>
  </symbol>
  
  <!-- Link Icon - Cybertruck style -->
  <symbol id="icon-link" viewBox="0 0 24 24">
    <rect x="2" y="8" width="8" height="8" stroke="currentColor" stroke-width="2.5" fill="none" stroke-linejoin="miter" stroke-linecap="square"/>
    <rect x="14" y="8" width="8" height="8" stroke="currentColor" stroke-width="2.5" fill="none" stroke-linejoin="miter" stroke-linecap="square"/>
    <line x1="10" y1="12" x2="14" y2="12" stroke="currentColor" stroke-width="2.5" stroke-linecap="square"/>
  </symbol>
  
  <!-- Deselect Icon - Cybertruck style -->
  <symbol id="icon-deselect" viewBox="0 0 24 24">
    <rect x="3" y="3" width="18" height="18" stroke="currentColor" stroke-width="2.5" fill="none" stroke-linejoin="miter" stroke-linecap="square"/>
    <line x1="3" y1="3" x2="21" y2="21" stroke="currentColor" stroke-width="2.5" stroke-linecap="square"/>
  </symbol>
  
  <!-- Lock Icon - Cybertruck style -->
  <symbol id="icon-lock" viewBox="0 0 24 24">
    <rect x="5" y="10" width="14" height="12" stroke="currentColor" stroke-width="2.5" fill="none" stroke-linejoin="miter" stroke-linecap="square"/>
    <path d="M8,10 L8,6 C8,3.5 10,2 12,2 C14,2 16,3.5 16,6 L16,10" stroke="currentColor" stroke-width="2.5" fill="none" stroke-linejoin="miter" stroke-linecap="square"/>
  </symbol>
  
  <!-- Unlock Icon - Cybertruck style -->
  <symbol id="icon-unlock" viewBox="0 0 24 24">
    <rect x="5" y="10" width="14" height="12" stroke="currentColor" stroke-width="2.5" fill="none" stroke-linejoin="miter" stroke-linecap="square"/>
    <path d="M8,10 L8,6 C8,3.5 10,2 12,2 C14,2 16,3.5 16,6" stroke="currentColor" stroke-width="2.5" fill="none" stroke-linejoin="miter" stroke-linecap="square"/>
  </symbol>
  
  <!-- Target (Center) Icon - Cybertruck style -->
  <symbol id="icon-target" viewBox="0 0 24 24">
    <rect x="8" y="8" width="8" height="8" stroke="currentColor" stroke-width="2.5" fill="none" stroke-linejoin="miter" stroke-linecap="square"/>
    <line x1="12" y1="2" x2="12" y2="8" stroke="currentColor" stroke-width="2.5" stroke-linecap="square"/>
    <line x1="12" y1="16" x2="12" y2="22" stroke="currentColor" stroke-width="2.5" stroke-linecap="square"/>
    <line x1="2" y1="12" x2="8" y2="12" stroke="currentColor" stroke-width="2.5" stroke-linecap="square"/>
    <line x1="16" y1="12" x2="22" y2="12" stroke="currentColor" stroke-width="2.5" stroke-linecap="square"/>
  </symbol>
  
  <!-- Details Icon - Cybertruck style -->
  <symbol id="icon-details" viewBox="0 0 24 24">
    <line x1="3" y1="6" x2="21" y2="6" stroke="currentColor" stroke-width="2.5" stroke-linecap="square"/>
    <line x1="3" y1="12" x2="21" y2="12" stroke="currentColor" stroke-width="2.5" stroke-linecap="square"/>
    <line x1="3" y1="18" x2="21" y2="18" stroke="currentColor" stroke-width="2.5" stroke-linecap="square"/>
  </symbol>
  
  <!-- Planet Icon - Cybertruck style -->
  <symbol id="icon-planet" viewBox="0 0 24 24">
    <polygon points="12,3 16,7 16,17 12,21 8,17 8,7" stroke="currentColor" stroke-width="2.5" fill="none" stroke-linejoin="miter" stroke-linecap="square"/>
    <line x1="8" y1="12" x2="16" y2="12" stroke="currentColor" stroke-width="2" stroke-linecap="square"/>
  </symbol>
  
  <!-- History Icon - Cybertruck style -->
  <symbol id="icon-history" viewBox="0 0 24 24">
    <polygon points="3,3 21,3 21,21 3,21" stroke="currentColor" stroke-width="2.5" fill="none" stroke-linejoin="miter" stroke-linecap="square"/>
    <polyline points="7,10 12,16 17,10" stroke="currentColor" stroke-width="2.5" fill="none" stroke-linejoin="miter" stroke-linecap="square"/>
  </symbol>
  
  <!-- Grid Icon - Cybertruck style -->
  <symbol id="icon-grid" viewBox="0 0 24 24">
    <rect x="3" y="3" width="18" height="18" stroke="currentColor" stroke-width="2.5" fill="none" stroke-linejoin="miter" stroke-linecap="square"/>
    <line x1="3" y1="12" x2="21" y2="12" stroke="currentColor" stroke-width="2" stroke-linecap="square"/>
    <line x1="12" y1="3" x2="12" y2="21" stroke="currentColor" stroke-width="2" stroke-linecap="square"/>
  </symbol>
  
  <!-- Label Icon - Cybertruck style -->
  <symbol id="icon-label" viewBox="0 0 24 24">
    <rect x="2" y="5" width="20" height="14" stroke="currentColor" stroke-width="2.5" fill="none" stroke-linejoin="miter" stroke-linecap="square"/>
    <line x1="6" y1="10" x2="18" y2="10" stroke="currentColor" stroke-width="2" stroke-linecap="square"/>
    <line x1="6" y1="14" x2="15" y2="14" stroke="currentColor" stroke-width="2" stroke-linecap="square"/>
  </symbol>
  
  <!-- Stats Icon - Cybertruck style -->
  <symbol id="icon-stats" viewBox="0 0 24 24">
    <rect x="3" y="3" width="18" height="18" stroke="currentColor" stroke-width="2.5" fill="none" stroke-linejoin="miter" stroke-linecap="square"/>
    <polyline points="7,19 7,10 11,10 11,19" stroke="currentColor" stroke-width="2" fill="none" stroke-linejoin="miter" stroke-linecap="square"/>
    <polyline points="13,19 13,14 17,14 17,19" stroke="currentColor" stroke-width="2" fill="none" stroke-linejoin="miter" stroke-linecap="square"/>
  </symbol>
  
  <!-- Filter Icon - Cybertruck style -->
  <symbol id="icon-filter" viewBox="0 0 24 24">
    <polygon points="3,3 21,3 15,13 15,21 9,18 9,13" stroke="currentColor" stroke-width="2.5" fill="none" stroke-linejoin="miter" stroke-linecap="square"/>
  </symbol>
  
  <!-- Analysis Icon - Cybertruck style -->
  <symbol id="icon-analysis" viewBox="0 0 24 24">
    <rect x="2" y="2" width="20" height="20" stroke="currentColor" stroke-width="2.5" fill="none" stroke-linejoin="miter" stroke-linecap="square"/>
    <polygon points="7,19 12,5 17,19" stroke="currentColor" stroke-width="2" fill="none" stroke-linejoin="miter" stroke-linecap="square"/>
  </symbol>
  
  <!-- Zoom Fit Icon - Cybertruck style -->
  <symbol id="icon-zoom-fit" viewBox="0 0 24 24">
    <rect x="4" y="4" width="16" height="16" stroke="currentColor" stroke-width="2.5" fill="none" stroke-linejoin="miter" stroke-linecap="square"/>
    <polyline points="8,8 3,3" stroke="currentColor" stroke-width="2.5" stroke-linecap="square"/>
    <polyline points="16,8 21,3" stroke="currentColor" stroke-width="2.5" stroke-linecap="square"/>
    <polyline points="8,16 3,21" stroke="currentColor" stroke-width="2.5" stroke-linecap="square"/>
    <polyline points="16,16 21,21" stroke="currentColor" stroke-width="2.5" stroke-linecap="square"/>
  </symbol>
  
  <!-- Undo Icon - Cybertruck style -->
  <symbol id="icon-undo" viewBox="0 0 24 24">
    <polyline points="8,8 3,14 8,20" stroke="currentColor" stroke-width="2.5" fill="none" stroke-linejoin="miter" stroke-linecap="square"/>
    <path d="M3,14 H16 C19,14 21,12 21,9 C21,6 19,4 16,4 H12" stroke="currentColor" stroke-width="2.5" fill="none" stroke-linejoin="miter" stroke-linecap="square"/>
  </symbol>
  
  <!-- Redo Icon - Cybertruck style -->
  <symbol id="icon-redo" viewBox="0 0 24 24">
    <polyline points="16,8 21,14 16,20" stroke="currentColor" stroke-width="2.5" fill="none" stroke-linejoin="miter" stroke-linecap="square"/>
    <path d="M21,14 H8 C5,14 3,12 3,9 C3,6 5,4 8,4 H12" stroke="currentColor" stroke-width="2.5" fill="none" stroke-linejoin="miter" stroke-linecap="square"/>
  </symbol>
</svg> 